<svg xmlns="http://www.w3.org/2000/svg" viewBox="0 0 512 640" x="0px" y="0px" fill="#5865f1"><g>
<path   fill="#5865f1" d="M465.6249,146.9805a11.2469,11.2469,0,1,0-19.9511,10.3886A212.9154,212.9154,0,0,1,407.1425,407.207c-83.3379,83.32-218.9355,83.3379-302.291,0a11.2465,11.2465,0,0,0-19.2041,7.9541v56.9a11.25,11.25,0,0,0,22.5,0V440.3506a236.62,236.62,0,0,0,314.9033-17.2354C496.3515,349.8145,513.4638,238.8438,465.6249,146.9805Z"/>
<path d="M104.8515,104.916a213.7356,213.7356,0,0,1,302.291,0,11.2465,11.2465,0,0,0,19.2041-7.9541v-56.9a11.25,11.25,0,0,0-22.5,0V71.7549A236.3026,236.3026,0,0,0,46.3779,365.1426,11.2469,11.2469,0,0,0,66.329,354.7539,212.9,212.9,0,0,1,104.8515,104.916Z"/><path d="M255.997,82.8115A89.1082,89.1082,0,0,0,166.99,171.8184V216.37H153.4023a38.29,38.29,0,0,0-38.25,38.25V364.0615a38.29,38.29,0,0,0,38.25,38.25H358.6005a38.29,38.29,0,0,0,38.25-38.25V254.62a38.29,38.29,0,0,0-38.25-38.25H345.0126V171.8184A89.11,89.11,0,0,0,255.997,82.8115ZM189.49,171.8184a66.5112,66.5112,0,0,1,133.0224,0V216.37H189.49Zm184.86,82.8017V364.0615a15.7691,15.7691,0,0,1-15.75,15.75H153.4023a15.7691,15.7691,0,0,1-15.75-15.75V254.62a15.7691,15.7691,0,0,1,15.75-15.75H358.6005A15.7691,15.7691,0,0,1,374.3505,254.62Z"/><circle cx="327.997" cy="309.3408" r="22.5"/><circle cx="255.997" cy="309.3408" r="22.5"/><circle cx="183.997" cy="309.3408" r="22.5"/></g></svg>